<svg width="41" height="40" viewBox="0 0 41 40" fill="none" xmlns="http://www.w3.org/2000/svg">
<path d="M20.7743 9.74451C15.0976 9.74451 10.5188 14.3233 10.5188 20C10.5188 25.6767 15.0976 30.2555 20.7743 30.2555C26.451 30.2555 31.0298 25.6767 31.0298 20C31.0298 14.3233 26.451 9.74451 20.7743 9.74451ZM20.7743 26.6674C17.1059 26.6674 14.1069 23.6773 14.1069 20C14.1069 16.3227 17.097 13.3326 20.7743 13.3326C24.4516 13.3326 27.4417 16.3227 27.4417 20C27.4417 23.6773 24.4427 26.6674 20.7743 26.6674ZM33.8414 9.325C33.8414 10.6549 32.7703 11.7171 31.4493 11.7171C30.1194 11.7171 29.0572 10.646 29.0572 9.325C29.0572 8.00402 30.1283 6.93295 31.4493 6.93295C32.7703 6.93295 33.8414 8.00402 33.8414 9.325ZM40.6337 11.7528C40.482 8.54848 39.7501 5.71014 37.4027 3.37164C35.0642 1.03314 32.2258 0.301238 29.0215 0.140578C25.7191 -0.0468593 15.8206 -0.0468593 12.5181 0.140578C9.32278 0.292313 6.48445 1.02421 4.13702 3.36271C1.78959 5.70122 1.06662 8.53955 0.905959 11.7438C0.718522 15.0463 0.718522 24.9448 0.905959 28.2472C1.05769 31.4515 1.78959 34.2899 4.13702 36.6284C6.48445 38.9669 9.31386 39.6988 12.5181 39.8594C15.8206 40.0469 25.7191 40.0469 29.0215 39.8594C32.2258 39.7077 35.0642 38.9758 37.4027 36.6284C39.7412 34.2899 40.4731 31.4515 40.6337 28.2472C40.8212 24.9448 40.8212 15.0552 40.6337 11.7528ZM36.3673 31.7907C35.6711 33.5401 34.3233 34.8879 32.565 35.593C29.932 36.6373 23.684 36.3963 20.7743 36.3963C17.8646 36.3963 11.6077 36.6284 8.98361 35.593C7.2342 34.8968 5.88643 33.549 5.18131 31.7907C4.13702 29.1576 4.37801 22.9097 4.37801 20C4.37801 17.0903 4.14595 10.8334 5.18131 8.20931C5.87751 6.45989 7.22527 5.11213 8.98361 4.40701C11.6167 3.36271 17.8646 3.6037 20.7743 3.6037C23.684 3.6037 29.9409 3.37164 32.565 4.40701C34.3144 5.1032 35.6622 6.45097 36.3673 8.20931C37.4116 10.8424 37.1706 17.0903 37.1706 20C37.1706 22.9097 37.4116 29.1666 36.3673 31.7907Z" fill="white"/>
</svg>
