<svg width="41" height="40" viewBox="0 0 41 40" fill="none" xmlns="http://www.w3.org/2000/svg">
<path d="M37.3955 0H2.86759C1.28547 0 0 1.29464 0 2.88393V37.1161C0 38.7054 1.28547 40 2.86759 40H37.3955C38.9776 40 40.2721 38.7054 40.2721 37.1161V2.88393C40.2721 1.29464 38.9776 0 37.3955 0ZM12.1715 34.2857H6.20262V15.1964H12.1805V34.2857H12.1715ZM9.18707 12.5893C7.27235 12.5893 5.72619 11.0446 5.72619 9.15179C5.72619 7.25893 7.27235 5.71429 9.18707 5.71429C11.0928 5.71429 12.648 7.25893 12.648 9.15179C12.648 11.0536 11.1018 12.5893 9.18707 12.5893ZM34.5459 34.2857H28.577V25C28.577 22.7857 28.5321 19.9375 25.4757 19.9375C22.3654 19.9375 21.889 22.3482 21.889 24.8393V34.2857H15.9201V15.1964H21.6463V17.8036H21.7272C22.5272 16.3036 24.4779 14.7232 27.3814 14.7232C33.4223 14.7232 34.5459 18.6786 34.5459 23.8214V34.2857Z" fill="white"/>
</svg>
